<svg xmlns="http://www.w3.org/2000/svg" width="750" height="450" viewBox="0 0 750 450">
<rect width="750" height="450" fill="#ffffff" />
<text x="375.0" y="32" text-anchor="middle" font-family="sans-serif" font-size="16" font-weight="bold">ARQ Retransmissions vs. Packet Reordering Rate (Loss = 0%)</text>
<text x="375.0" y="50" text-anchor="middle" font-family="sans-serif" font-size="12" fill="#555555">Validating: Selective Repeat requires fewer retransmissions than Go-Back-N</text>
<line x1="80" y1="390" x2="700" y2="390" stroke="#333" stroke-width="2"/>
<line x1="80" y1="60" x2="80" y2="390" stroke="#333" stroke-width="2"/>
<text x="390.0" y="432" text-anchor="middle" font-family="sans-serif" font-size="13">Packet Reordering Rate (%)</text>
<text x="25" y="225.0" text-anchor="middle" font-family="sans-serif" font-size="13" transform="rotate(-90 25 225.0)">Mean Data Retransmissions</text>
<line x1="80" y1="390.0" x2="700" y2="390.0" stroke="#eeeeee" stroke-width="1"/>
<text x="70" y="394.0" text-anchor="end" font-family="sans-serif" font-size="11" fill="#666">0</text>
<line x1="80" y1="307.5" x2="700" y2="307.5" stroke="#eeeeee" stroke-width="1"/>
<text x="70" y="311.5" text-anchor="end" font-family="sans-serif" font-size="11" fill="#666">30</text>
<line x1="80" y1="225.0" x2="700" y2="225.0" stroke="#eeeeee" stroke-width="1"/>
<text x="70" y="229.0" text-anchor="end" font-family="sans-serif" font-size="11" fill="#666">60</text>
<line x1="80" y1="142.5" x2="700" y2="142.5" stroke="#eeeeee" stroke-width="1"/>
<text x="70" y="146.5" text-anchor="end" font-family="sans-serif" font-size="11" fill="#666">90</text>
<line x1="80" y1="60.0" x2="700" y2="60.0" stroke="#eeeeee" stroke-width="1"/>
<text x="70" y="64.0" text-anchor="end" font-family="sans-serif" font-size="11" fill="#666">120</text>
<text x="80.0" y="410" text-anchor="middle" font-family="sans-serif" font-size="11" fill="#666">0%</text>
<text x="204.0" y="410" text-anchor="middle" font-family="sans-serif" font-size="11" fill="#666">5%</text>
<text x="328.0" y="410" text-anchor="middle" font-family="sans-serif" font-size="11" fill="#666">10%</text>
<text x="452.0" y="410" text-anchor="middle" font-family="sans-serif" font-size="11" fill="#666">15%</text>
<text x="576.0" y="410" text-anchor="middle" font-family="sans-serif" font-size="11" fill="#666">20%</text>
<text x="700.0" y="410" text-anchor="middle" font-family="sans-serif" font-size="11" fill="#666">25%</text>
<polyline points="80.0,390.0 204.0,390.0 328.0,390.0 452.0,390.0 576.0,390.0 700.0,390.0" fill="none" stroke="#e74c3c" stroke-width="3" />
<circle cx="80.0" cy="390.0" r="4.5" fill="#e74c3c" stroke="#ffffff" stroke-width="1.5" />
<circle cx="204.0" cy="390.0" r="4.5" fill="#e74c3c" stroke="#ffffff" stroke-width="1.5" />
<circle cx="328.0" cy="390.0" r="4.5" fill="#e74c3c" stroke="#ffffff" stroke-width="1.5" />
<circle cx="452.0" cy="390.0" r="4.5" fill="#e74c3c" stroke="#ffffff" stroke-width="1.5" />
<circle cx="576.0" cy="390.0" r="4.5" fill="#e74c3c" stroke="#ffffff" stroke-width="1.5" />
<circle cx="700.0" cy="390.0" r="4.5" fill="#e74c3c" stroke="#ffffff" stroke-width="1.5" />
<polyline points="80.0,390.0 204.0,332.8 328.0,274.5 452.0,250.3 576.0,219.0 700.0,163.4" fill="none" stroke="#e67e22" stroke-width="3" />
<circle cx="80.0" cy="390.0" r="4.5" fill="#e67e22" stroke="#ffffff" stroke-width="1.5" />
<circle cx="204.0" cy="332.8" r="4.5" fill="#e67e22" stroke="#ffffff" stroke-width="1.5" />
<circle cx="328.0" cy="274.5" r="4.5" fill="#e67e22" stroke="#ffffff" stroke-width="1.5" />
<circle cx="452.0" cy="250.3" r="4.5" fill="#e67e22" stroke="#ffffff" stroke-width="1.5" />
<circle cx="576.0" cy="219.0" r="4.5" fill="#e67e22" stroke="#ffffff" stroke-width="1.5" />
<circle cx="700.0" cy="163.4" r="4.5" fill="#e67e22" stroke="#ffffff" stroke-width="1.5" />
<polyline points="80.0,390.0 204.0,390.0 328.0,387.8 452.0,387.2 576.0,385.1 700.0,383.4" fill="none" stroke="#27ae60" stroke-width="3" />
<circle cx="80.0" cy="390.0" r="4.5" fill="#27ae60" stroke="#ffffff" stroke-width="1.5" />
<circle cx="204.0" cy="390.0" r="4.5" fill="#27ae60" stroke="#ffffff" stroke-width="1.5" />
<circle cx="328.0" cy="387.8" r="4.5" fill="#27ae60" stroke="#ffffff" stroke-width="1.5" />
<circle cx="452.0" cy="387.2" r="4.5" fill="#27ae60" stroke="#ffffff" stroke-width="1.5" />
<circle cx="576.0" cy="385.1" r="4.5" fill="#27ae60" stroke="#ffffff" stroke-width="1.5" />
<circle cx="700.0" cy="383.4" r="4.5" fill="#27ae60" stroke="#ffffff" stroke-width="1.5" />
<rect x="100" y="70" width="180" height="85" fill="#fdfdfd" stroke="#cccccc" rx="4" />
<line x1="112" y1="92" x2="135" y2="92" stroke="#e74c3c" stroke-width="3"/>
<circle cx="123.5" cy="92" r="4" fill="#e74c3c"/>
<text x="145" y="96" font-family="sans-serif" font-size="12" fill="#333333">StopAndWait</text>
<line x1="112" y1="114" x2="135" y2="114" stroke="#e67e22" stroke-width="3"/>
<circle cx="123.5" cy="114" r="4" fill="#e67e22"/>
<text x="145" y="118" font-family="sans-serif" font-size="12" fill="#333333">GoBackN</text>
<line x1="112" y1="136" x2="135" y2="136" stroke="#27ae60" stroke-width="3"/>
<circle cx="123.5" cy="136" r="4" fill="#27ae60"/>
<text x="145" y="140" font-family="sans-serif" font-size="12" fill="#333333">SelectiveRepeat</text>
</svg>